<!-- <svg class="w-5 h-5 text-white"
        viewBox="0 0 24 24"
        fill="none">
<path d="M12 4.75L19.25 9L12 13.25L4.75 9L12 4.75Z"
        stroke="currentColor"
        stroke-width="1.5"
        stroke-linecap="round"
        stroke-linejoin="round"></path>
<path d="M9.25 12L4.75 15L12 19.25L19.25 15L14.6722 12"
        stroke="currentColor"
        stroke-width="1.5"
        stroke-linecap="round"
        stroke-linejoin="round"></path>
</svg> -->

<!-- <svg xmlns="http://www.w3.org/2000/svg" class="h-5 w-5 text-white" viewBox="0 0 20 20" fill="currentColor">
  <path d="M8.433 7.418c.155-.103.346-.196.567-.267v1.698a2.305 2.305 0 01-.567-.267C8.07 8.34 8 8.114 8 8c0-.114.07-.34.433-.582zM11 12.849v-1.698c.22.071.412.164.567.267.364.243.433.468.433.582 0 .114-.07.34-.433.582a2.305 2.305 0 01-.567.267z" />
  <path fill-rule="evenodd" d="M10 18a8 8 0 100-16 8 8 0 000 16zm1-13a1 1 0 10-2 0v.092a4.535 4.535 0 00-1.676.662C6.602 6.234 6 7.009 6 8c0 .99.602 1.765 1.324 2.246.48.32 1.054.545 1.676.662v1.941c-.391-.127-.68-.317-.843-.504a1 1 0 10-1.51 1.31c.562.649 1.413 1.076 2.353 1.253V15a1 1 0 102 0v-.092a4.535 4.535 0 001.676-.662C13.398 13.766 14 12.991 14 12c0-.99-.602-1.765-1.324-2.246A4.535 4.535 0 0011 9.092V7.151c.391.127.68.317.843.504a1 1 0 101.511-1.31c-.563-.649-1.413-1.076-2.354-1.253V5z" clip-rule="evenodd" />
</svg> -->

<svg fill="#000000" class="h-5 w-5 text-white" version="1.1" id="Layer_1" xmlns="http://www.w3.org/2000/svg" xmlns:xlink="http://www.w3.org/1999/xlink" 
	 viewBox="0 0 511.999 511.999" xml:space="preserve">
<g>
	<g>
		<g>
			<path d="M278.906,412.315c-5.622,0-10.181,4.558-10.181,10.181v1.696c0,5.623,4.559,10.181,10.181,10.181
				c5.622,0,10.181-4.558,10.181-10.181v-1.696C289.086,416.872,284.528,412.315,278.906,412.315z"/>
			<path d="M332.98,277.361c13.71-14.241,23.519-32.26,27.686-52.324c21.988-5.312,40.534-12.32,53.913-20.418
				c22.013-13.324,26.633-27.464,26.633-36.978c0-20.659-20.131-38.31-58.218-51.048c-1.714-0.573-3.464-1.13-5.233-1.678
				c-1.659-48.984-38.585-89.171-86.131-95.921v-8.814C291.632,4.558,287.073,0,281.451,0h-50.903
				c-5.623,0-10.181,4.558-10.181,10.181v8.814c-47.546,6.751-84.471,46.937-86.13,95.921c-1.769,0.548-3.518,1.104-5.233,1.678
				c-38.087,12.738-58.218,30.39-58.218,51.048c0,24.624,28.545,44.908,80.548,57.405c4.168,20.061,13.976,38.078,27.684,52.315
				c-73.532,24.794-126.631,94.403-126.631,176.19v48.267c0,5.623,4.558,10.181,10.181,10.181h386.863
				c5.622,0,10.181-4.558,10.181-10.181v-48.267C459.612,371.763,406.513,302.155,332.98,277.361z M240.729,20.361h30.542v30.542
				h-30.542V20.361z M220.367,39.63v21.454c0,5.623,4.558,10.181,10.181,10.181h50.903c5.622,0,10.181-4.558,10.181-10.181V39.63
				c34.48,6.193,61.352,34.533,65.313,69.726c-29.614-6.783-64.486-10.435-100.945-10.435s-71.329,3.652-100.945,10.435
				C159.016,74.163,185.889,45.823,220.367,39.63z M149.102,167.641v35.632c0,0.063,0.002,0.125,0.002,0.187
				c-39.895-10.679-57.956-25.292-57.956-35.819c0-8.178,11.641-20.81,44.314-31.738c32.046-10.717,74.853-16.62,120.537-16.62
				c45.684,0,88.491,5.903,120.537,16.62c32.674,10.927,44.314,23.56,44.314,31.738c0,10.213-18.265,25.12-57.958,35.81
				c0-0.059,0.002-0.118,0.002-0.178v-35.632c0-5.623-4.559-10.181-10.181-10.181H159.283
				C153.66,157.46,149.102,162.018,149.102,167.641z M169.464,203.273v-25.452h173.07v25.452c0,47.716-38.82,86.535-86.535,86.535
				C208.284,289.808,169.464,250.989,169.464,203.273z M320.273,294.693l-15.299,46.193l-28.391-32.713
				c13.576-2.659,26.24-7.893,37.46-15.176C316.135,293.522,318.212,294.088,320.273,294.693z M222.913,491.638H72.749v-38.087
				c0-67.94,41.149-126.442,99.828-151.916l20.745,62.637c1.15,3.475,4.077,6.064,7.667,6.782c0.665,0.133,1.335,0.197,1.997,0.197
				c2.918,0,5.734-1.255,7.688-3.507l12.238-14.101V491.638z M207.026,340.886l-15.299-46.193c2.061-0.605,4.137-1.171,6.231-1.697
				c11.219,7.283,23.883,12.517,37.46,15.176L207.026,340.886z M439.251,491.639h-0.001H289.086v-30.796
				c0-5.623-4.559-10.181-10.181-10.181c-5.622,0-10.181,4.558-10.181,10.181v30.796h-25.452V330.185l12.726-14.663l12.726,14.662
				v53.625c0,5.623,4.559,10.181,10.181,10.181c5.622,0,10.181-4.558,10.181-10.181v-30.164l12.238,14.101
				c1.955,2.252,4.772,3.507,7.689,3.507c0.663,0,1.333-0.064,1.997-0.198c3.589-0.719,6.516-3.308,7.667-6.782l20.745-62.637
				c58.679,25.474,99.828,83.976,99.828,151.916V491.639z"/>
		</g>
	</g>
</g>
</svg>